<svg height='100px' width='100px'  fill="#000000" xmlns="http://www.w3.org/2000/svg" xmlns:xlink="http://www.w3.org/1999/xlink" version="1.1" x="0px" y="0px" viewBox="0 0 26 26" enable-background="new 0 0 26 26" xml:space="preserve"><g><path d="M8,10c1.1099,0,2-0.8899,2-2c0-1.6501,1.35-3,3-3c1.66,0,3,1.3499,3,3c0,1.6499-1.3301,2.99-3,3   c-1.1454,0-2.0942,0.9767-1.99,2.1799C11.01,13.23,11.03,15,11.03,15c0,1.0999,0.8999,2,2,2c1.1,0,2-0.9001,2-2v-0.29   C17.96,13.8298,20,11.1301,20,8c0-3.8501-3.1401-7-7-7C9.14,1,6,4.1499,6,8C6,9.1101,6.9,10,8,10z"></path><path d="M13.03,25c1.66,0,3-1.3401,3-3c0-1.6501-1.34-3-3-3c-1.65,0-3,1.3499-3,3C10.03,23.6599,11.38,25,13.03,25z"></path></g></svg>