<?xml version="1.0" encoding="UTF-8"?>
<svg width="100pt" height="100pt" version="1.1" viewBox="0 0 100 100" xmlns="http://www.w3.org/2000/svg">
 <path d="m85.555 8.6992h-48.086c-3.1719 0-5.75 2.5781-5.75 5.75v48.082c0 3.1719 2.5781 5.75 5.75 5.75h48.086c3.1719 0 5.75-2.5781 5.75-5.75v-48.082c0-3.1719-2.582-5.75-5.75-5.75zm-1.75 52.082h-44.586v-44.582h44.586zm-23.023 23.02h-44.586v-44.582h12.605v-7.5h-14.355c-3.1719 0-5.75 2.5781-5.75 5.75v48.082c0 3.1719 2.5781 5.75 5.75 5.75h48.086c3.1719 0 5.75-2.5781 5.75-5.75v-14.352h-7.5z"/>
</svg>
