<?xml version="1.0" encoding="UTF-8"?>
<svg width="100pt" height="100pt" version="1.1" viewBox="0 0 100 100" xmlns="http://www.w3.org/2000/svg">
 <path d="m96.199 15.398c-1.5-2.1992-3.1992-4.3008-5.3008-6.3008-1.3984-1.3984-3.5-3.1016-6.1992-5-3.3008-2.2969-7.6992-1.8984-10.5 0.90234l-62.598 62.602c-0.30078 0.30078-0.5 0.69922-0.69922 1.1016l-8.2031 23.098c-0.5 1.5-0.19922 3.1992 1 4.3008 0.80078 0.80078 1.8984 1.1992 2.8984 1.1992 0.5 0 0.89844-0.10156 1.3984-0.19922l23.203-8.1016c0.39844-0.10156 0.80078-0.39844 1.1016-0.69922l62.801-62.801c2.6992-2.6992 3.1992-7 1.0977-10.102zm-81.098 58.902c4 2.8984 7.5 6.5 10.5 10.5l-10.398 3.6992c-0.39844-0.69922-1-1.5-1.6016-2.1016-0.69922-0.69922-1.3984-1.1992-2.1016-1.6016zm75.898-52.902-60.398 60.402c-3.3984-4.8008-7.6992-9-12.5-12.5l60.199-60.199c0.80078-0.80078 2.1016-0.89844 3-0.19922 2.3984 1.6992 4.3008 3.1016 5.3984 4.3008 1.8008 1.8008 3.3008 3.6016 4.6016 5.5 0.59766 0.69531 0.39844 1.9961-0.30078 2.6953z"/>
</svg>
