<?xml version="1.0" encoding="UTF-8"?>
<svg width="1200pt" height="1200pt" version="1.1" viewBox="0 0 1200 1200" xmlns="http://www.w3.org/2000/svg">
 <g>
  <path d="m603.94 444.21c-21.324-21.336-49.691-33.086-79.859-33.086-30.18 0-58.547 11.746-79.883 33.086-21.336 21.336-33.086 49.691-33.07 79.859 0 30.168 11.746 58.535 33.086 79.859 21.336 21.348 49.715 33.098 79.895 33.098 30.168 0 58.523-11.746 79.848-33.07 21.336-21.336 33.086-49.703 33.07-79.871-0.003907-30.184-11.75-58.539-33.086-79.875zm-18.051 141.7c-16.512 16.512-38.449 25.598-61.801 25.598-23.363 0-45.324-9.0977-61.836-25.609-16.512-16.512-25.609-38.461-25.609-61.812 0-23.352 9.0859-45.301 25.598-61.812 16.512-16.512 38.473-25.609 61.836-25.609 23.352 0 45.301 9.0977 61.812 25.609 16.512 16.512 25.609 38.461 25.609 61.824 0 23.367-9.0977 45.312-25.609 61.812z"/>
  <path d="m473.18 473.22 18.047 18.047c18.109-18.109 47.543-18.109 65.652-0.011719l18.047-18.047c-28.055-28.055-73.691-28.043-101.75 0.011719z"/>
  <path d="m838.8 766.77-140.89-140.91c-4.9805-4.9922-13.055-4.9922-18.047 0l-17.988 17.988-11.352-11.352c25.969-30.191 40.234-68.16 40.234-108.39-0.011718-44.52-17.34-86.363-48.828-117.85-31.477-31.477-73.332-48.816-117.84-48.816-44.52 0-86.375 17.34-117.86 48.828-64.98 64.98-64.98 170.72-0.011718 235.7 31.5 31.477 73.355 48.828 117.88 48.828 40.234 0 78.203-14.281 108.38-40.234l11.352 11.352-17.988 17.988c-2.3867 2.3867-3.7422 5.6406-3.7422 9.0234s1.3438 6.6367 3.7422 9.0234l140.89 140.89c2.4961 2.4961 5.7617 3.7422 9.0234 3.7422 3.2656 0 6.5273-1.2461 9.0234-3.7422l54.035-54.023c2.3867-2.3867 3.7422-5.6406 3.7422-9.0234-0.015625-3.3867-1.3594-6.6367-3.7461-9.0234zm-314.74-101.52c-37.703 0-73.152-14.688-99.828-41.34-55.02-55.031-55.02-144.56 0.011719-199.6 26.676-26.664 62.113-41.34 99.816-41.34 37.691 0 73.129 14.688 99.781 41.328 26.664 26.664 41.34 62.113 41.352 99.816 0 37.691-14.676 73.129-41.328 99.793-26.652 26.664-62.098 41.34-99.805 41.34zm251.68 146.51-122.84-122.85 35.988-35.965 122.83 122.84z"/>
 </g>
</svg>
