<svg height='100px' width='100px'  fill="#000000" xmlns="http://www.w3.org/2000/svg" xmlns:xlink="http://www.w3.org/1999/xlink" version="1.1" x="0px" y="0px" viewBox="0 0 100 100" enable-background="new 0 0 100 100" xml:space="preserve"><path d="M80,60c-3.7,0-6.9,2-8.7,5H70c-7.9,0-11.8-3.8-16.7-8.6c-2.2-2.1-4.5-4.4-7.2-6.3  c3-2,5.4-4.4,7.6-6.6C58.5,38.8,62.3,35,70,35h1.3c1.7,3,5,5,8.7,5c5.5,0,10-4.5,10-10c0-5.5-4.5-10-10-10c-3.7,0-6.9,2-8.7,5H70  c-11.8,0-17.9,6-23.3,11.4C41.8,41.2,37.9,45,30,45h-1.3c-1.7-3-5-5-8.7-5c-5.5,0-10,4.5-10,10c0,5.5,4.5,10,10,10  c3.7,0,6.9-2,8.7-5H30c7.7,0,11.5,3.8,16.3,8.5C51.5,68.6,58,75,70,75h1.3c1.7,3,5,5,8.7,5c5.5,0,10-4.5,10-10  C90,64.5,85.5,60,80,60z M80,24c3.3,0,6,2.7,6,6s-2.7,6-6,6s-6-2.7-6-6S76.7,24,80,24z M20,56c-3.3,0-6-2.7-6-6s2.7-6,6-6s6,2.7,6,6  S23.3,56,20,56z M80,76c-3.3,0-6-2.7-6-6s2.7-6,6-6s6,2.7,6,6S83.3,76,80,76z"></path></svg>